<?xml version="1.0" encoding="UTF-8" standalone="no"?>
<!-- Created with Inkscape (http://www.inkscape.org/) -->

<svg
   width="91.627831mm"
   height="19.039953mm"
   viewBox="0 0 91.627831 19.039953"
   version="1.1"
   id="svg5"
   inkscape:version="1.1.1 (3bf5ae0d25, 2021-09-20)"
   sodipodi:docname="Logo 1-1 Black.svg"
   xmlns:inkscape="http://www.inkscape.org/namespaces/inkscape"
   xmlns:sodipodi="http://sodipodi.sourceforge.net/DTD/sodipodi-0.dtd"
   xmlns:xlink="http://www.w3.org/1999/xlink"
   xmlns="http://www.w3.org/2000/svg"
   xmlns:svg="http://www.w3.org/2000/svg">
  <sodipodi:namedview
     id="namedview7"
     pagecolor="#ffffff"
     bordercolor="#666666"
     borderopacity="1.0"
     inkscape:pageshadow="2"
     inkscape:pageopacity="0.0"
     inkscape:pagecheckerboard="0"
     inkscape:document-units="mm"
     showgrid="false"
     objecttolerance="20"
     inkscape:zoom="1.622695"
     inkscape:cx="118.32168"
     inkscape:cy="-9.2438814"
     inkscape:window-width="1879"
     inkscape:window-height="1028"
     inkscape:window-x="0"
     inkscape:window-y="0"
     inkscape:window-maximized="1"
     inkscape:current-layer="text1704" />
  <defs
     id="defs2">
    <linearGradient
       inkscape:collect="always"
       id="linearGradient10018">
      <stop
         style="stop-color:#f2f2f2;stop-opacity:1;"
         offset="0"
         id="stop10014" />
      <stop
         style="stop-color:#f2f2f2;stop-opacity:0;"
         offset="1"
         id="stop10016" />
    </linearGradient>
    <rect
       x="54.034332"
       y="359.06686"
       width="657.1272"
       height="263.19949"
       id="rect1706" />
    <linearGradient
       inkscape:collect="always"
       xlink:href="#linearGradient10018"
       id="linearGradient10020"
       x1="228.24187"
       y1="397.9444"
       x2="228.24187"
       y2="365.28268"
       gradientUnits="userSpaceOnUse" />
    <linearGradient
       inkscape:collect="always"
       xlink:href="#linearGradient10018"
       id="linearGradient10850"
       gradientUnits="userSpaceOnUse"
       x1="228.24187"
       y1="397.9444"
       x2="228.24187"
       y2="365.28268" />
    <linearGradient
       inkscape:collect="always"
       xlink:href="#linearGradient10018"
       id="linearGradient10852"
       gradientUnits="userSpaceOnUse"
       x1="228.24187"
       y1="397.9444"
       x2="228.24187"
       y2="365.28268" />
    <linearGradient
       inkscape:collect="always"
       xlink:href="#linearGradient10018"
       id="linearGradient10854"
       gradientUnits="userSpaceOnUse"
       x1="228.24187"
       y1="397.9444"
       x2="228.24187"
       y2="365.28268" />
    <linearGradient
       inkscape:collect="always"
       xlink:href="#linearGradient10018"
       id="linearGradient10856"
       gradientUnits="userSpaceOnUse"
       x1="228.24187"
       y1="397.9444"
       x2="228.24187"
       y2="365.28268" />
    <linearGradient
       inkscape:collect="always"
       xlink:href="#linearGradient10018"
       id="linearGradient10858"
       gradientUnits="userSpaceOnUse"
       x1="228.24187"
       y1="397.9444"
       x2="228.24187"
       y2="365.28268" />
    <linearGradient
       inkscape:collect="always"
       xlink:href="#linearGradient10018"
       id="linearGradient10860"
       gradientUnits="userSpaceOnUse"
       x1="228.24187"
       y1="397.9444"
       x2="228.24187"
       y2="365.28268" />
    <linearGradient
       inkscape:collect="always"
       xlink:href="#linearGradient10018"
       id="linearGradient10862"
       gradientUnits="userSpaceOnUse"
       x1="228.24187"
       y1="397.9444"
       x2="228.24187"
       y2="365.28268" />
    <linearGradient
       inkscape:collect="always"
       xlink:href="#linearGradient10018"
       id="linearGradient10864"
       gradientUnits="userSpaceOnUse"
       x1="228.24187"
       y1="397.9444"
       x2="228.24187"
       y2="365.28268" />
    <linearGradient
       inkscape:collect="always"
       xlink:href="#linearGradient10018"
       id="linearGradient10866"
       gradientUnits="userSpaceOnUse"
       x1="228.24187"
       y1="397.9444"
       x2="228.24187"
       y2="365.28268" />
    <linearGradient
       inkscape:collect="always"
       xlink:href="#linearGradient10018"
       id="linearGradient10868"
       gradientUnits="userSpaceOnUse"
       x1="228.24187"
       y1="397.9444"
       x2="228.24187"
       y2="365.28268" />
    <linearGradient
       inkscape:collect="always"
       xlink:href="#linearGradient10018"
       id="linearGradient10870"
       gradientUnits="userSpaceOnUse"
       x1="228.24187"
       y1="397.9444"
       x2="228.24187"
       y2="365.28268" />
    <linearGradient
       inkscape:collect="always"
       xlink:href="#linearGradient10018"
       id="linearGradient10872"
       gradientUnits="userSpaceOnUse"
       x1="228.24187"
       y1="397.9444"
       x2="228.24187"
       y2="365.28268" />
    <linearGradient
       inkscape:collect="always"
       xlink:href="#linearGradient10018"
       id="linearGradient10874"
       gradientUnits="userSpaceOnUse"
       x1="228.24187"
       y1="397.9444"
       x2="228.24187"
       y2="365.28268" />
    <linearGradient
       inkscape:collect="always"
       xlink:href="#linearGradient10018"
       id="linearGradient10876"
       gradientUnits="userSpaceOnUse"
       x1="228.24187"
       y1="397.9444"
       x2="228.24187"
       y2="365.28268" />
  </defs>
  <g
     inkscape:label="Layer 1"
     inkscape:groupmode="layer"
     id="layer1"
     transform="translate(-15.103611,-95.477376)">
    <g
       aria-label="PARKEND FARMING"
       transform="scale(0.26458333)"
       id="text1704"
       style="font-size:40px;line-height:1.25;white-space:pre;shape-inside:url(#rect1706)">
      <g
         id="g10848">
        <g
           id="g5711">
          <path
             d="m 57.084516,360.86004 v 34.60137 h 3.954443 v -34.60137 z m 2.174944,3.75672 h 7.019135 q 3.410707,0 5.53622,1.68064 2.174943,1.6312 2.174943,4.94305 0,3.21298 -2.174943,4.89362 -2.125513,1.68064 -5.53622,1.68064 H 59.25946 v 3.75672 h 7.019135 q 3.361277,0 5.981095,-1.23576 2.619818,-1.2852 4.152165,-3.60843 1.581777,-2.32324 1.581777,-5.48679 0,-3.21299 -1.581777,-5.53622 -1.532347,-2.32324 -4.152165,-3.559 -2.619818,-1.28519 -5.981095,-1.28519 H 59.25946 Z"
             style="font-family:Jost;-inkscape-font-specification:'Jost, @wght=386';font-variation-settings:'wght' 386;stroke-width:1.23576"
             id="path5510" />
          <path
             d="m 78.835041,386.94141 h 14.72 l -1.12,-3.08 h -12.48 z m 7.28,-13.48 4.92,11.56 0.28,0.76 4.12,9.68 h 3.6 l -12.92,-29.36 -12.88,29.36 h 3.6 l 4.16,-9.92 0.32,-0.68 z"
             style="font-family:Jost;-inkscape-font-specification:'Jost, @wght=386';font-variation-settings:'wght' 386"
             id="path5512" />
          <path
             d="m 107.47502,381.74141 9.56,13.72 h 3.96 l -9.92,-13.72 z m -4.96,-14.28 v 28 h 3.2 v -28 z m 1.76,2.84 h 5.64 q 1.88,0 3.28,0.68 1.4,0.64 2.2,1.88 0.8,1.2 0.8,2.96 0,1.76 -0.8,3 -0.8,1.2 -2.2,1.88 -1.4,0.64 -3.28,0.64 h -5.64 v 2.84 h 5.64 q 2.72,0 4.84,-1 2.16,-1 3.4,-2.88 1.28,-1.92 1.28,-4.48 0,-2.6 -1.28,-4.44 -1.24,-1.88 -3.4,-2.88 -2.12,-1.04 -4.84,-1.04 h -5.64 z"
             style="font-family:Jost;-inkscape-font-specification:'Jost, @wght=386';font-variation-settings:'wght' 386"
             id="path5514" />
          <path
             d="m 124.67496,367.46141 v 28 h 3.24 v -28 z m 14.32,0 -12.08,13.2 12.68,14.8 h 4 l -12.72,-14.88 12.12,-13.12 z"
             style="font-family:Jost;-inkscape-font-specification:'Jost, @wght=386';font-variation-settings:'wght' 386"
             id="path5516" />
          <path
             d="m 148.83488,395.46141 h 14.08 v -3.04 h -14.08 z m 0,-24.96 h 14.08 v -3.04 h -14.08 z m 0,11.28 h 13.28 v -3.08 h -13.28 z m -1.76,-14.32 v 28 h 3.2 v -28 z"
             style="font-family:Jost;-inkscape-font-specification:'Jost, @wght=386';font-variation-settings:'wght' 386"
             id="path5518" />
          <path
             d="m 190.19482,367.46141 v 21.2 l -21.2,-22.56 v 29.36 h 3.2 v -21.2 l 21.24,22.56 v -29.36 z"
             style="font-family:Jost;-inkscape-font-specification:'Jost, @wght=386';font-variation-settings:'wght' 386"
             id="path5520" />
          <path
             d="m 199.8748,367.46141 v 28 h 3.2 v -28 z m 8.28,28 q 4.08,0 7.2,-1.76 3.16,-1.76 4.96,-4.88 1.8,-3.16 1.8,-7.36 0,-4.2 -1.8,-7.32 -1.8,-3.16 -4.96,-4.92 -3.12,-1.76 -7.2,-1.76 h -6.52 v 3.24 h 6.52 q 2.4,0 4.36,0.76 2,0.72 3.4,2.16 1.44,1.4 2.2,3.4 0.76,1.96 0.76,4.44 0,2.48 -0.76,4.48 -0.76,1.96 -2.2,3.4 -1.4,1.4 -3.4,2.16 -1.96,0.72 -4.36,0.72 h -6.52 v 3.24 z"
             style="font-family:Jost;-inkscape-font-specification:'Jost, @wght=386';font-variation-settings:'wght' 386"
             id="path5522" />
          <path
             id="path5524"
             style="font-family:Jost;-inkscape-font-specification:'Jost, @wght=386';font-variation-settings:'wght' 386;stroke-width:1.23576"
             d="m 237.59766,360.85938 v 34.60156 h 3.95507 v -16.9043 h 12.75586 l 1.64844,-3.75781 h -14.4043 v -10.18164 h 18.8711 l 1.64844,-3.75781 h -20.51954 z"
             sodipodi:nodetypes="cccccccccccc" />
          <path
             d="m 258.63462,386.94141 h 14.72 l -1.12,-3.08 h -12.48 z m 7.28,-13.48 4.92,11.56 0.28,0.76 4.12,9.68 h 3.6 l -12.92,-29.36 -12.88,29.36 h 3.6 l 4.16,-9.92 0.32,-0.68 z"
             style="font-family:Jost;-inkscape-font-specification:'Jost, @wght=386';font-variation-settings:'wght' 386"
             id="path5526" />
          <path
             d="m 287.2746,381.74141 9.56,13.72 h 3.96 l -9.92,-13.72 z m -4.96,-14.28 v 28 h 3.2 v -28 z m 1.76,2.84 h 5.64 q 1.88,0 3.28,0.68 1.4,0.64 2.2,1.88 0.8,1.2 0.8,2.96 0,1.76 -0.8,3 -0.8,1.2 -2.2,1.88 -1.4,0.64 -3.28,0.64 h -5.64 v 2.84 h 5.64 q 2.72,0 4.84,-1 2.16,-1 3.4,-2.88 1.28,-1.92 1.28,-4.48 0,-2.6 -1.28,-4.44 -1.24,-1.88 -3.4,-2.88 -2.12,-1.04 -4.84,-1.04 h -5.64 z"
             style="font-family:Jost;-inkscape-font-specification:'Jost, @wght=386';font-variation-settings:'wght' 386"
             id="path5528" />
          <path
             d="m 308.27454,376.10141 9.24,16.68 9.2,-16.68 2.12,19.36 h 3.24 l -3.36,-29.36 -11.2,20.44 -11.2,-20.44 -3.4,29.36 h 3.24 z"
             style="font-family:Jost;-inkscape-font-specification:'Jost, @wght=386';font-variation-settings:'wght' 386"
             id="path5530" />
          <path
             d="m 336.91448,367.46141 v 28 h 3.24 v -28 z"
             style="font-family:Jost;-inkscape-font-specification:'Jost, @wght=386';font-variation-settings:'wght' 386"
             id="path5532" />
          <path
             d="m 367.79446,367.46141 v 21.2 l -21.2,-22.56 v 29.36 h 3.2 v -21.2 l 21.24,22.56 v -29.36 z"
             style="font-family:Jost;-inkscape-font-specification:'Jost, @wght=386';font-variation-settings:'wght' 386"
             id="path5534" />
          <path
             d="m 390.47444,384.34141 h 9.4 q -0.32,1.68 -1.12,3.2 -0.76,1.48 -2,2.64 -1.24,1.16 -2.92,1.8 -1.68,0.64 -3.8,0.64 -3.04,0 -5.48,-1.4 -2.4,-1.44 -3.84,-3.96 -1.44,-2.52 -1.44,-5.8 0,-3.32 1.44,-5.8 1.44,-2.52 3.88,-3.92 2.44,-1.44 5.44,-1.44 3.2,0 5.6,1.28 2.4,1.28 3.72,3.56 l 2.28,-2.12 q -1.2,-1.92 -2.96,-3.24 -1.72,-1.36 -3.88,-2.04 -2.16,-0.68 -4.76,-0.68 -3.04,0 -5.64,1.08 -2.6,1.04 -4.52,3 -1.92,1.92 -2.96,4.56 -1.04,2.64 -1.04,5.76 0,3.12 1.04,5.76 1.04,2.64 2.96,4.6 1.92,1.92 4.52,3 2.6,1.04 5.64,1.04 3.16,0 5.64,-1.16 2.52,-1.2 4.24,-3.24 1.72,-2.04 2.6,-4.64 0.88,-2.6 0.88,-5.52 h -12.92 z"
             style="font-family:Jost;-inkscape-font-specification:'Jost, @wght=386';font-variation-settings:'wght' 386"
             id="path5536" />
        </g>
        <g
           id="g7184"
           transform="matrix(1,0,0,-1,0,793.68079)"
           style="fill:url(#linearGradient10020);fill-opacity:1">
          <path
             d="m 57.084516,360.86004 v 34.60137 h 3.954443 v -34.60137 z m 2.174944,3.75672 h 7.019135 q 3.410707,0 5.53622,1.68064 2.174943,1.6312 2.174943,4.94305 0,3.21298 -2.174943,4.89362 -2.125513,1.68064 -5.53622,1.68064 H 59.25946 v 3.75672 h 7.019135 q 3.361277,0 5.981095,-1.23576 2.619818,-1.2852 4.152165,-3.60843 1.581777,-2.32324 1.581777,-5.48679 0,-3.21299 -1.581777,-5.53622 -1.532347,-2.32324 -4.152165,-3.559 -2.619818,-1.28519 -5.981095,-1.28519 H 59.25946 Z"
             style="font-family:Jost;-inkscape-font-specification:'Jost, @wght=386';font-variation-settings:'wght' 386;fill:url(#linearGradient10850);fill-opacity:1;stroke-width:1.23576"
             id="path7156" />
          <path
             d="m 78.835041,386.94141 h 14.72 l -1.12,-3.08 h -12.48 z m 7.28,-13.48 4.92,11.56 0.28,0.76 4.12,9.68 h 3.6 l -12.92,-29.36 -12.88,29.36 h 3.6 l 4.16,-9.92 0.32,-0.68 z"
             style="font-family:Jost;-inkscape-font-specification:'Jost, @wght=386';font-variation-settings:'wght' 386;fill:url(#linearGradient10852);fill-opacity:1"
             id="path7158" />
          <path
             d="m 107.47502,381.74141 9.56,13.72 h 3.96 l -9.92,-13.72 z m -4.96,-14.28 v 28 h 3.2 v -28 z m 1.76,2.84 h 5.64 q 1.88,0 3.28,0.68 1.4,0.64 2.2,1.88 0.8,1.2 0.8,2.96 0,1.76 -0.8,3 -0.8,1.2 -2.2,1.88 -1.4,0.64 -3.28,0.64 h -5.64 v 2.84 h 5.64 q 2.72,0 4.84,-1 2.16,-1 3.4,-2.88 1.28,-1.92 1.28,-4.48 0,-2.6 -1.28,-4.44 -1.24,-1.88 -3.4,-2.88 -2.12,-1.04 -4.84,-1.04 h -5.64 z"
             style="font-family:Jost;-inkscape-font-specification:'Jost, @wght=386';font-variation-settings:'wght' 386;fill:url(#linearGradient10854);fill-opacity:1"
             id="path7160" />
          <path
             d="m 124.67496,367.46141 v 28 h 3.24 v -28 z m 14.32,0 -12.08,13.2 12.68,14.8 h 4 l -12.72,-14.88 12.12,-13.12 z"
             style="font-family:Jost;-inkscape-font-specification:'Jost, @wght=386';font-variation-settings:'wght' 386;fill:url(#linearGradient10856);fill-opacity:1"
             id="path7162" />
          <path
             d="m 148.83488,395.46141 h 14.08 v -3.04 h -14.08 z m 0,-24.96 h 14.08 v -3.04 h -14.08 z m 0,11.28 h 13.28 v -3.08 h -13.28 z m -1.76,-14.32 v 28 h 3.2 v -28 z"
             style="font-family:Jost;-inkscape-font-specification:'Jost, @wght=386';font-variation-settings:'wght' 386;fill:url(#linearGradient10858);fill-opacity:1"
             id="path7164" />
          <path
             d="m 190.19482,367.46141 v 21.2 l -21.2,-22.56 v 29.36 h 3.2 v -21.2 l 21.24,22.56 v -29.36 z"
             style="font-family:Jost;-inkscape-font-specification:'Jost, @wght=386';font-variation-settings:'wght' 386;fill:url(#linearGradient10860);fill-opacity:1"
             id="path7166" />
          <path
             d="m 199.8748,367.46141 v 28 h 3.2 v -28 z m 8.28,28 q 4.08,0 7.2,-1.76 3.16,-1.76 4.96,-4.88 1.8,-3.16 1.8,-7.36 0,-4.2 -1.8,-7.32 -1.8,-3.16 -4.96,-4.92 -3.12,-1.76 -7.2,-1.76 h -6.52 v 3.24 h 6.52 q 2.4,0 4.36,0.76 2,0.72 3.4,2.16 1.44,1.4 2.2,3.4 0.76,1.96 0.76,4.44 0,2.48 -0.76,4.48 -0.76,1.96 -2.2,3.4 -1.4,1.4 -3.4,2.16 -1.96,0.72 -4.36,0.72 h -6.52 v 3.24 z"
             style="font-family:Jost;-inkscape-font-specification:'Jost, @wght=386';font-variation-settings:'wght' 386;fill:url(#linearGradient10862);fill-opacity:1"
             id="path7168" />
          <path
             id="path7170"
             style="font-family:Jost;-inkscape-font-specification:'Jost, @wght=386';font-variation-settings:'wght' 386;fill:url(#linearGradient10864);fill-opacity:1;stroke-width:1.23576"
             d="m 237.59766,360.85938 v 34.60156 h 3.95507 v -16.9043 h 12.75586 l 1.64844,-3.75781 h -14.4043 v -10.18164 h 18.8711 l 1.64844,-3.75781 h -20.51954 z"
             sodipodi:nodetypes="cccccccccccc" />
          <path
             d="m 258.63462,386.94141 h 14.72 l -1.12,-3.08 h -12.48 z m 7.28,-13.48 4.92,11.56 0.28,0.76 4.12,9.68 h 3.6 l -12.92,-29.36 -12.88,29.36 h 3.6 l 4.16,-9.92 0.32,-0.68 z"
             style="font-family:Jost;-inkscape-font-specification:'Jost, @wght=386';font-variation-settings:'wght' 386;fill:url(#linearGradient10866);fill-opacity:1"
             id="path7172" />
          <path
             d="m 287.2746,381.74141 9.56,13.72 h 3.96 l -9.92,-13.72 z m -4.96,-14.28 v 28 h 3.2 v -28 z m 1.76,2.84 h 5.64 q 1.88,0 3.28,0.68 1.4,0.64 2.2,1.88 0.8,1.2 0.8,2.96 0,1.76 -0.8,3 -0.8,1.2 -2.2,1.88 -1.4,0.64 -3.28,0.64 h -5.64 v 2.84 h 5.64 q 2.72,0 4.84,-1 2.16,-1 3.4,-2.88 1.28,-1.92 1.28,-4.48 0,-2.6 -1.28,-4.44 -1.24,-1.88 -3.4,-2.88 -2.12,-1.04 -4.84,-1.04 h -5.64 z"
             style="font-family:Jost;-inkscape-font-specification:'Jost, @wght=386';font-variation-settings:'wght' 386;fill:url(#linearGradient10868);fill-opacity:1"
             id="path7174" />
          <path
             d="m 308.27454,376.10141 9.24,16.68 9.2,-16.68 2.12,19.36 h 3.24 l -3.36,-29.36 -11.2,20.44 -11.2,-20.44 -3.4,29.36 h 3.24 z"
             style="font-family:Jost;-inkscape-font-specification:'Jost, @wght=386';font-variation-settings:'wght' 386;fill:url(#linearGradient10870);fill-opacity:1"
             id="path7176" />
          <path
             d="m 336.91448,367.46141 v 28 h 3.24 v -28 z"
             style="font-family:Jost;-inkscape-font-specification:'Jost, @wght=386';font-variation-settings:'wght' 386;fill:url(#linearGradient10872);fill-opacity:1"
             id="path7178" />
          <path
             d="m 367.79446,367.46141 v 21.2 l -21.2,-22.56 v 29.36 h 3.2 v -21.2 l 21.24,22.56 v -29.36 z"
             style="font-family:Jost;-inkscape-font-specification:'Jost, @wght=386';font-variation-settings:'wght' 386;fill:url(#linearGradient10874);fill-opacity:1"
             id="path7180" />
          <path
             d="m 390.47444,384.34141 h 9.4 q -0.32,1.68 -1.12,3.2 -0.76,1.48 -2,2.64 -1.24,1.16 -2.92,1.8 -1.68,0.64 -3.8,0.64 -3.04,0 -5.48,-1.4 -2.4,-1.44 -3.84,-3.96 -1.44,-2.52 -1.44,-5.8 0,-3.32 1.44,-5.8 1.44,-2.52 3.88,-3.92 2.44,-1.44 5.44,-1.44 3.2,0 5.6,1.28 2.4,1.28 3.72,3.56 l 2.28,-2.12 q -1.2,-1.92 -2.96,-3.24 -1.72,-1.36 -3.88,-2.04 -2.16,-0.68 -4.76,-0.68 -3.04,0 -5.64,1.08 -2.6,1.04 -4.52,3 -1.92,1.92 -2.96,4.56 -1.04,2.64 -1.04,5.76 0,3.12 1.04,5.76 1.04,2.64 2.96,4.6 1.92,1.92 4.52,3 2.6,1.04 5.64,1.04 3.16,0 5.64,-1.16 2.52,-1.2 4.24,-3.24 1.72,-2.04 2.6,-4.64 0.88,-2.6 0.88,-5.52 h -12.92 z"
             style="font-family:Jost;-inkscape-font-specification:'Jost, @wght=386';font-variation-settings:'wght' 386;fill:url(#linearGradient10876);fill-opacity:1"
             id="path7182" />
        </g>
      </g>
    </g>
  </g>
</svg>
