<?xml version="1.0"?>
<svg xmlns="http://www.w3.org/2000/svg" xmlns:xlink="http://www.w3.org/1999/xlink" xmlns:svgjs="http://svgjs.com/svgjs" version="1.1" width="512" height="512" x="0" y="0" viewBox="0 0 511.996 511.996" style="enable-background:new 0 0 512 512" xml:space="preserve" class=""><g><g xmlns="http://www.w3.org/2000/svg"><g><path d="m317.226 224.397c0 28.77 30.081 52.176 67.056 52.176s67.056-23.406 67.056-52.176-30.081-52.175-67.056-52.175-67.056 23.405-67.056 52.175zm29.48-25.565c9.981-7.487 23.326-11.61 37.577-11.61s27.595 4.123 37.577 11.61c9.337 7.004 14.479 16.083 14.479 25.564 0 9.482-5.142 18.562-14.479 25.565-9.981 7.487-23.327 11.61-37.577 11.61s-27.595-4.123-37.577-11.61c-9.337-7.004-14.479-16.083-14.479-25.565-.001-9.481 5.141-18.56 14.479-25.564z" fill="#545454" data-original="#000000" class=""/><path d="m403.218 238.076c4.142 0 7.5-3.357 7.5-7.5v-12.359c0-4.143-3.358-7.5-7.5-7.5s-7.5 3.357-7.5 7.5v12.359c0 4.143 3.358 7.5 7.5 7.5z" fill="#545454" data-original="#000000" class=""/><path d="m365.318 238.076c4.142 0 7.5-3.357 7.5-7.5v-12.359c0-4.143-3.358-7.5-7.5-7.5s-7.5 3.357-7.5 7.5v12.359c0 4.143 3.358 7.5 7.5 7.5z" fill="#545454" data-original="#000000" class=""/><path d="m355.811 150.723v-5.727c0-4.143-3.358-7.5-7.5-7.5s-7.5 3.357-7.5 7.5v5.727c0 4.143 3.358 7.5 7.5 7.5s7.5-3.358 7.5-7.5z" fill="#545454" data-original="#000000" class=""/><path d="m427.754 150.723v-5.727c0-4.143-3.358-7.5-7.5-7.5s-7.5 3.357-7.5 7.5v5.727c0 4.143 3.358 7.5 7.5 7.5s7.5-3.358 7.5-7.5z" fill="#545454" data-original="#000000" class=""/><path d="m509.208 78.105c-1.63-3.697-3.725-7.778-7.978-9.408-4.154-1.59-7.696.006-10.542 1.289-4.52 2.039-12.087 5.45-30.799 1.984-14.157-2.625-29.386 2.02-40.853 12.176-11.008-3.806-22.675-5.782-34.754-5.782-12.094 0-23.761 1.966-34.759 5.756-11.468-10.143-26.7-14.777-40.851-12.149-18.707 3.465-26.276.054-30.798-1.983-2.848-1.283-6.395-2.883-10.549-1.291-4.256 1.628-6.357 5.705-7.993 9.399-2.346 5.3-3.116 11.15-2.651 17.21-27.741-1.871-54.844-1.298-78.927 1.712-4.11.514-7.026 4.263-6.512 8.373.513 4.109 4.261 7.016 8.372 6.512 24.451-3.057 52.211-3.502 80.582-1.312 4.539 12.154 13.078 24.412 23.522 33.795-11.908 23.417-18.31 51.162-18.31 80.381 0 37.792 22.91 68.241 62.855 83.54 17.692 6.775 36.865 10.007 55.798 10.006 12.997-.001 25.874-1.531 38.076-4.477.269-.063.54-.118.808-.184-10.314 32.08-27.166 34.862-42.264 34.862-3.104 0-8.862-.144-14.431-.283-5.259-.132-10.227-.256-12.828-.256-.016 0-.03 0-.045 0-10.006 0-18.669 4.271-25.055 12.354-6.705 8.486-10.248 20.69-9.809 32.435h-27.236l-.671-17.543c-.335-8.487-2.63-14.508-7.015-18.405-3.955-3.516-9.356-5.036-16.053-4.51-28.354 2.197-30.188 2.101-37.908 1.699-5.154-.268-12.942-.672-31.755-.672-23.439 0-39.91-6.28-57.573-16.594 9.055-34.085 8.182-75.753-11.145-93.836-3.024-2.83-7.771-2.673-10.601.353-2.83 3.024-2.672 7.771.353 10.601 15.186 14.209 14.689 53.955 5.436 84.172-.02.064-.031.128-.048.192-.014.049-.034.096-.046.145l-13.92 54.399h-26.418l-2.023-52.38c-1.2-25.686-6.712-45.391-11.576-62.776-4.645-16.604-8.656-30.945-8.656-47.881 0-59.755 26.25-94.996 82.61-110.906 3.986-1.125 6.306-5.269 5.18-9.256-1.125-3.985-5.269-6.307-9.255-5.18-30.108 8.499-53.204 22.773-68.646 42.427-9.595 12.211-16.422 26.76-20.475 43.462-21-6.042-36.072-25.472-36.072-47.887 0-27.47 22.348-49.817 49.817-49.817 4.142 0 7.5-3.357 7.5-7.5s-3.358-7.5-7.5-7.5c-35.74 0-64.817 29.077-64.817 64.817 0 29.636 20.253 55.26 48.275 62.668-1.073 7.824-1.617 16.049-1.617 24.671 0 18.994 4.474 34.988 9.21 51.921 4.875 17.43 9.917 35.452 11.035 59.376l3.26 84.422c.22 5.641.379 9.717 2.818 13.187 3.707 5.274 10.22 5.274 13.719 5.274h39.006c.459.039.913.059 1.359.059 4.003 0 7.445-1.563 9.624-4.427 2.649-3.482 3.009-8.347.986-13.345-.08-.195-.167-.388-.263-.576l-13.294-26.228 12.193-47.65c6.277 3.5 12.583 6.547 19.17 9.055v65.435c0 9.747 7.942 17.677 17.705 17.677h29.565c8.576 0 12.84-3.609 14.907-6.637 2.226-3.261 4.113-9.103.469-18.419l-7.816-19.993.066-30.451c9.74.126 14.802.388 18.476.579 8.501.44 10.521.547 39.85-1.725 2.407-.188 4.157.084 4.924.766.525.467 1.771 2.159 1.992 7.777l.934 24.393c0 .023-.003.044-.003.067 0 .165.014.327.025.49l.945 24.692c.22 5.641.379 9.717 2.818 13.187 3.707 5.274 10.22 5.274 13.719 5.274h39.008c4.585.394 8.573-1.187 10.991-4.367 3.225-4.242 2.507-9.519.651-14.175-2.289-5.743-8.206-13.86-10.653-28.125-1.772-9.426.667-20.81 6.041-27.612 3.488-4.414 7.957-6.652 13.295-6.652h.024c2.365 0 7.065.116 12.087.242v63.013c0 9.747 7.942 17.677 17.705 17.677h29.537c8.576 0 12.84-3.609 14.907-6.637 2.226-3.261 4.113-9.103.469-18.419l-7.816-19.993.104-50.26c7.222-7.483 13.594-18.595 18.232-35.039.478-1.681.911-3.419 1.315-5.227 16.749-6.401 31.419-15.768 42.207-27.786 2.767-3.082 2.511-7.824-.571-10.591-3.083-2.767-7.824-2.513-10.591.571-13.969 15.562-36.121 26.483-62.375 30.756-25.315 4.12-52.649 1.574-74.993-6.983-19.876-7.612-53.22-26.769-53.22-69.532 0-63.7 36.405-131.402 103.874-131.402 59.218 0 103.874 56.491 103.874 131.402 0 6.018-.69 11.883-2.052 17.433-.987 4.023 1.475 8.084 5.498 9.071 4.02.988 8.083-1.476 9.071-5.497 1.648-6.719 2.483-13.786 2.483-21.007 0-29.292-6.397-57.028-18.306-80.405 19.272-17.379 33.368-45.896 24.355-66.258zm-422.508 350.801c-.53 0-.974-.009-1.344-.022-.094-1.204-.155-2.754-.204-4.021l-.66-17.1h27.054l10.717 21.143zm83.781-63.514c.018-.007.035-.014.053-.021 7.613 1.742 15.781 2.76 24.809 2.921.011.007.022.013.034.02l-.053 24.452h-24.843zm32.27 63.514h-29.565c-1.466 0-2.705-1.226-2.705-2.677v-18.466h27.206l6.47 16.55c.869 2.221 1.046 3.646 1.033 4.332-.403.117-1.162.261-2.439.261zm91.304 0c-.53 0-.974-.009-1.344-.022-.094-1.204-.155-2.753-.204-4.019l-.654-17.102h29.415c2.075 6.923 4.408 11.921 6.518 16.432.75 1.604 1.473 3.15 2.148 4.711zm86.445-65.392c.001 0 .001-.001 0 0h.182c7.874 0 16.433-.856 24.696-4.431l-.065 33.681h-24.813zm32.242 65.392h-29.537c-1.466 0-2.705-1.226-2.705-2.677v-18.466h27.178l6.47 16.55c.869 2.221 1.046 3.646 1.033 4.332-.403.117-1.161.261-2.439.261zm-121.347-297.871c-14.872-14.565-23.405-35.263-18.38-46.792 6.003 2.637 16.737 6.49 38.395 2.475h.003c7.271-1.349 15.267.308 22.205 4.326-16.575 9.02-30.935 22.612-42.223 39.991zm170.975-18.73c-8.239-8.635-17.471-15.779-27.521-21.239 6.935-4.09 14.885-5.721 22.306-4.348h.001c21.636 4.009 32.363.172 38.37-2.465 5.012 11.522-3.514 32.215-18.37 46.786-4.356-6.681-9.311-12.937-14.786-18.734z" fill="#545454" data-original="#000000" class=""/></g></g></g></svg>
